HIERARCHY
ROOT hip
{
  OFFSET 0 0 0
  CHANNELS 6 Xposition Yposition Zposition Zrotation Yrotation Xrotation
  JOINT abdomen
  {
    OFFSET 0 20.6881 -0.73152
    CHANNELS 3 Zrotation Xrotation Yrotation
    JOINT chest
    {
      OFFSET 0 11.7043 -0.48768
      CHANNELS 3 Zrotation Xrotation Yrotation
      JOINT neck
      {
        OFFSET 0 22.1894 -2.19456
        CHANNELS 3 Zrotation Xrotation Yrotation
        JOINT head
        {
          OFFSET -0.24384 7.07133 1.2192
          CHANNELS 3 Zrotation Xrotation Yrotation
          JOINT leftEye
          {
            OFFSET 4.14528 8.04674 8.04672
            CHANNELS 3 Zrotation Xrotation Yrotation
            End Site
            {
              OFFSET 1 0 0
            }
          }
          JOINT rightEye
          {
            OFFSET -3.6576 8.04674 8.04672
            CHANNELS 3 Zrotation Xrotation Yrotation
            End Site
            {
              OFFSET 1 0 0
            }
          }
        }
      }
      JOINT rCollar
      {
        OFFSET -2.68224 19.2634 -4.8768
        CHANNELS 3 Zrotation Xrotation Yrotation
        JOINT rShldr
        {
          OFFSET -8.77824 -1.95073 1.46304
          CHANNELS 3 Zrotation Xrotation Yrotation
          JOINT rForeArm
          {
            OFFSET -28.1742 -1.7115 0.48768
            CHANNELS 3 Zrotation Xrotation Yrotation
            JOINT rHand
            {
              OFFSET -22.5879 0.773209 7.07136
              CHANNELS 3 Zrotation Xrotation Yrotation
              JOINT rThumb1
              {
                OFFSET -1.2192 -0.487915 3.41376
                CHANNELS 3 Zrotation Xrotation Yrotation
                JOINT rThumb2
                {
                  OFFSET -3.37035 -0.52449 3.41376
                  CHANNELS 3 Zrotation Xrotation Yrotation
                  End Site
                  {
                    OFFSET -1.78271 -1.18214 1.43049
                  }
                }
              }
              JOINT rIndex1
              {
                OFFSET -7.75947 0.938293 5.60832
                CHANNELS 3 Zrotation Xrotation Yrotation
                JOINT rIndex2
                {
                  OFFSET -2.54057 -0.884171 1.56538
                  CHANNELS 3 Zrotation Xrotation Yrotation
                  End Site
                  {
                    OFFSET -1.62519 -0.234802 1.16502
                  }
                }
              }
              JOINT rMid1
              {
                OFFSET -8.24714 1.18213 3.41376
                CHANNELS 3 Zrotation Xrotation Yrotation
                JOINT rMid2
                {
                  OFFSET -3.10165 -0.590103 1.0647
                  CHANNELS 3 Zrotation Xrotation Yrotation
                  End Site
                  {
                    OFFSET -2.48547 -0.328903 0.83742
                  }
                }
              }
              JOINT rRing1
              {
                OFFSET -8.82822 0.546677 1.51678
                CHANNELS 3 Zrotation Xrotation Yrotation
                JOINT rRing2
                {
                  OFFSET -2.60934 -0.819778 -0.0198488
                  CHANNELS 3 Zrotation Xrotation Yrotation
                  End Site
                  {
                    OFFSET -2.33842 -0.294052 0.168128
                  }
                }
              }
              JOINT rPinky1
              {
                OFFSET -8.27202 -0.0477905 -0.4584
                CHANNELS 3 Zrotation Xrotation Yrotation
                JOINT rPinky2
                {
                  OFFSET -1.82734 -0.647385 -0.700984
                  CHANNELS 3 Zrotation Xrotation Yrotation
                  End Site
                  {
                    OFFSET -1.69225 -0.51767 -0.607171
                  }
                }
              }
            }
          }
        }
      }
      JOINT lCollar
      {
        OFFSET 2.68224 19.2634 -4.8768
        CHANNELS 3 Zrotation Xrotation Yrotation
        JOINT lShldr
        {
          OFFSET 8.77824 -1.95073 1.46304
          CHANNELS 3 Zrotation Xrotation Yrotation
          JOINT lForeArm
          {
            OFFSET 28.1742 -1.7115 0.48768
            CHANNELS 3 Zrotation Xrotation Yrotation
            JOINT lHand
            {
              OFFSET 22.5879 0.773209 7.07136
              CHANNELS 3 Zrotation Xrotation Yrotation
              JOINT lThumb1
              {
                OFFSET 1.2192 -0.487915 3.41376
                CHANNELS 3 Zrotation Xrotation Yrotation
                JOINT lThumb2
                {
                  OFFSET 3.37035 -0.52449 3.41376
                  CHANNELS 3 Zrotation Xrotation Yrotation
                  End Site
                  {
                    OFFSET 1.78271 -1.18214 1.43049
                  }
                }
              }
              JOINT lIndex1
              {
                OFFSET 7.75947 0.938293 5.60832
                CHANNELS 3 Zrotation Xrotation Yrotation
                JOINT lIndex2
                {
                  OFFSET 2.54057 -0.884171 1.56538
                  CHANNELS 3 Zrotation Xrotation Yrotation
                  End Site
                  {
                    OFFSET 1.62519 -0.234802 1.16502
                  }
                }
              }
              JOINT lMid1
              {
                OFFSET 8.24714 1.18213 3.41376
                CHANNELS 3 Zrotation Xrotation Yrotation
                JOINT lMid2
                {
                  OFFSET 3.10165 -0.590103 1.0647
                  CHANNELS 3 Zrotation Xrotation Yrotation
                  End Site
                  {
                    OFFSET 2.48547 -0.328903 0.83742
                  }
                }
              }
              JOINT lRing1
              {
                OFFSET 8.82822 0.546677 1.51678
                CHANNELS 3 Zrotation Xrotation Yrotation
                JOINT lRing2
                {
                  OFFSET 2.60934 -0.819778 -0.0198488
                  CHANNELS 3 Zrotation Xrotation Yrotation
                  End Site
                  {
                    OFFSET 2.33842 -0.294052 0.168128
                  }
                }
              }
              JOINT lPinky1
              {
                OFFSET 8.27202 -0.0477905 -0.4584
                CHANNELS 3 Zrotation Xrotation Yrotation
                JOINT lPinky2
                {
                  OFFSET 1.82734 -0.647385 -0.700984
                  CHANNELS 3 Zrotation Xrotation Yrotation
                  End Site
                  {
                    OFFSET 1.69225 -0.51767 -0.607171
                  }
                }
              }
            }
          }
        }
      }
    }
  }
  JOINT rButtock
  {
    OFFSET -8.77824 4.35084 1.2192
    CHANNELS 3 Zrotation Xrotation Yrotation
    JOINT rThigh
    {
      OFFSET 0 -1.70687 -2.19456
      CHANNELS 3 Zrotation Xrotation Yrotation
      JOINT rShin
      {
        OFFSET 0 -36.8199 0.73152
        CHANNELS 3 Zrotation Xrotation Yrotation
        JOINT rFoot
        {
          OFFSET 0.73152 -45.1104 -5.12064
          CHANNELS 3 Zrotation Xrotation Yrotation
          End Site
          {
            OFFSET -1.1221 -3.69964 12.103
          }
        }
      }
    }
  }
  JOINT lButtock
  {
    OFFSET 8.77824 4.35084 1.2192
    CHANNELS 3 Zrotation Xrotation Yrotation
    JOINT lThigh
    {
      OFFSET 0 -1.70687 -2.19456
      CHANNELS 3 Zrotation Xrotation Yrotation
      JOINT lShin
      {
        OFFSET 0 -36.8199 0.73152
        CHANNELS 3 Zrotation Xrotation Yrotation
        JOINT lFoot
        {
          OFFSET -0.73152 -45.1104 -5.12064
          CHANNELS 3 Zrotation Xrotation Yrotation
          End Site
          {
            OFFSET 1.1221 -3.69964 12.103
          }
        }
      }
    }
  }
}
MOTION
Frames:	6
Frame Time:	0.00833333
-1.28591 84.9173 -162.437 0.0 0.0 0.0 -0.140625 -0.000295015 -0.00400526 -0.0387669 -0.000394549 -0.00671564 1.28848e-15 -7.95139e-16 1.3977e-17 3.84835e-15 3.18055e-15 4.81432e-17 -0.0 0.0 0.0 -0.0 0.0 0.0 6.44745e-16 0.0 1.49089e-16 1.588e-14 -8.07563e-17 1.19271e-15 2.3223e-13 -7.31528e-14 3.18055e-15 2.68061e-12 5.53864e-14 3.49861e-14 6.31652e-12 -4.09605e-14 7.95139e-14 1.09037e-11 -7.31528e-14 1.41535e-13 6.32294e-12 -3.89618e-14 8.26944e-14 7.73091 5.47488 0.417314 6.31703e-12 -4.1049e-14 8.90555e-14 2.90554 0.965183 0.102902 6.32464e-12 -4.04527e-14 8.34896e-14 10.2786 0.731801 0.0259123 6.31121e-12 -3.97569e-14 9.22361e-14 2.22167 -0.733487 -0.20892 6.47398e-16 0.0 -1.49089e-16 1.1168e-14 2.23633e-16 -7.95139e-16 2.35759e-13 7.11649e-14 -9.54166e-15 2.67452e-12 -6.85559e-14 6.04305e-14 6.31452e-12 -1.2143e-15 8.5875e-14 1.09133e-11 -6.36111e-15 1.57437e-13 6.30664e-12 7.95139e-16 9.85972e-14 -7.73091 5.47488 -0.417314 6.31603e-12 -1.19271e-15 8.5875e-14 -2.90554 0.965183 -0.102902 6.31022e-12 -1.19271e-15 8.5875e-14 -10.2786 0.731801 -0.0259123 6.32274e-12 7.95139e-16 7.31528e-14 -2.22167 -0.733487 0.20892 -2.03217e-16 0.0 -3.88251e-19 0.415454 -2.89234 -0.0363695 -0.00657581 -0.313961 -0.0578455 -0.521687 3.20536 0.125419 2.03217e-16 0.0 3.88251e-19 -0.62935 -3.43714 0.0497311 0.00497787 0.672914 0.0432304 0.523142 2.76331 -0.116511
-0.649236 83.5065 -163.754 -1.7548 12.6962 2.6576 1.00975 0.838511 -1.38766 1.88304 0.0455073 -0.402786 0.527319 -1.83248 0.402301 -4.45054 2.52728 0.960949 -0.0 0.0 0.0 -0.0 0.0 0.0 4.52689e-15 1.38593e-14 1.02726e-13 6.46911 -7.33382 -1.01805 -3.31058 -1.35977 5.31709 0.00144186 0.84704 0.118998 7.14545e-10 2.21619e-10 9.80877e-10 1.23845e-09 3.83107e-10 1.69346e-09 7.14551e-10 2.2162e-10 9.80875e-10 7.73091 5.47488 0.417314 7.14545e-10 2.21619e-10 9.80882e-10 2.90554 0.965183 0.102902 7.14553e-10 2.21619e-10 9.80879e-10 10.2786 0.731801 0.0259123 7.14539e-10 2.2162e-10 9.80888e-10 2.22167 -0.733487 -0.20892 4.51494e-15 1.3871e-14 1.02466e-13 -11.9721 -5.57604 1.76967 3.37123 -1.39458 -5.4053 -0.000171114 0.443683 -0.0623512 2.64048e-10 -3.06676e-10 9.47252e-10 4.5767e-10 -5.31445e-10 1.6377e-09 2.64041e-10 -3.06673e-10 9.47264e-10 -7.73091 5.47488 -0.417314 2.64049e-10 -3.06674e-10 9.4725e-10 -2.90554 0.965183 -0.102902 2.64043e-10 -3.06674e-10 9.47252e-10 -10.2786 0.731801 -0.0259123 2.64053e-10 -3.06673e-10 9.47244e-10 -2.22167 -0.733487 0.20892 -2.03217e-16 0.0 -3.88251e-19 -0.799365 -4.34162 -0.524532 0.00824966 6.66869 0.0730763 -1.11267 0.289328 -7.43933 2.03217e-16 0.0 3.88251e-19 1.0305 -5.96993 -0.946671 -0.00632985 7.46747 -0.068655 0.679004 -0.072693 2.8574
-0.647566 83.5063 -163.757 -1.7035 12.5964 2.6777 2.27193 1.72457 -2.84855 3.92005 0.0928262 -0.820588 1.10624 -3.77129 0.828432 -9.24942 5.18313 1.98278 -0.0 0.0 0.0 -0.0 0.0 0.0 9.60599e-15 2.98055e-14 2.17911e-13 13.0425 -15.0702 -2.14437 -6.5321 -2.75507 10.9394 -0.000882042 1.75279 0.246332 1.51524e-09 4.67537e-10 2.07275e-09 2.62619e-09 8.08211e-10 3.5785e-09 1.51524e-09 4.67537e-10 2.07274e-09 7.73091 5.47488 0.417314 1.51524e-09 4.67536e-10 2.07275e-09 2.90554 0.965183 0.102902 1.51524e-09 4.67537e-10 2.07275e-09 10.2786 0.731801 0.0259123 1.51523e-09 4.67538e-10 2.07276e-09 2.22167 -0.733487 -0.20892 9.57723e-15 2.98296e-14 2.17691e-13 -24.2891 -11.4455 3.68572 6.64115 -2.82168 -11.1151 0.000871649 0.951414 -0.133718 5.62337e-10 -6.41284e-10 2.01049e-09 9.74657e-10 -1.11131e-09 3.4759e-09 5.6233e-10 -6.41279e-10 2.0105e-09 -7.73091 5.47488 -0.417314 5.62338e-10 -6.4128e-10 2.01048e-09 -2.90554 0.965183 -0.102902 5.62332e-10 -6.41279e-10 2.01049e-09 -10.2786 0.731801 -0.0259123 5.62339e-10 -6.41279e-10 2.01048e-09 -2.22167 -0.733487 0.20892 -2.03217e-16 0.0 -3.88251e-19 -2.10869 -5.87165 -1.04353 -0.0116228 14.0485 0.216929 -2.56564 -2.6876 -15.4565 2.03217e-16 0.0 3.88251e-19 2.68956 -8.64579 -2.01456 0.0113808 14.6514 -0.192033 1.16346 -3.05443 6.0081
-0.609191 83.5094 -163.761 -1.514 12.5725 2.6927 3.43202 2.51024 -4.15853 5.72855 0.137285 -1.19493 1.65945 -5.49635 1.21186 -13.6077 7.57326 2.90541 -0.0 0.0 0.0 -0.0 0.0 0.0 1.22912e-14 4.15779e-14 3.07879e-13 18.5738 -21.9725 -3.26668 -9.18397 -3.93902 15.9855 -0.0062385 2.54108 0.357305 2.131e-09 6.64938e-10 2.94247e-09 3.69353e-09 1.14947e-09 5.0801e-09 2.13101e-09 6.64938e-10 2.94246e-09 7.73091 5.47488 0.417314 2.131e-09 6.64938e-10 2.94247e-09 2.90554 0.965183 0.102902 2.13101e-09 6.64938e-10 2.94247e-09 10.2786 0.731801 0.0259123 2.131e-09 6.6494e-10 2.94248e-09 2.22167 -0.733487 -0.20892 1.225e-14 4.16131e-14 3.07697e-13 -34.8461 -16.6628 5.51618 9.33437 -4.03504 -16.2525 0.0023843 1.33104 -0.187099 7.79514e-10 -9.20026e-10 2.84158e-09 1.35118e-09 -1.59432e-09 4.91279e-09 7.79508e-10 -9.20019e-10 2.84159e-09 -7.73091 5.47488 -0.417314 7.79515e-10 -9.20021e-10 2.84158e-09 -2.90554 0.965183 -0.102902 7.79509e-10 -9.2002e-10 2.84159e-09 -10.2786 0.731801 -0.0259123 7.79514e-10 -9.20019e-10 2.84159e-09 -2.22167 -0.733487 0.20892 -2.03217e-16 0.0 -3.88251e-19 -3.30365 -7.23824 -1.50846 -0.0628297 20.6337 0.35629 -4.55203 -5.11033 -22.6632 2.03217e-16 0.0 3.88251e-19 4.08149 -11.0234 -2.9789 0.0551792 21.0563 -0.311471 1.87336 -5.67706 8.84868
-0.624679 83.5082 -163.761 -1.5419 12.4679 2.7019 4.2513 3.0505 -5.08783 6.96449 0.174615 -1.46063 2.09365 -6.68808 1.4838 -16.6856 9.30713 3.55914 -0.0 0.0 0.0 -0.0 0.0 0.0 8.99162e-15 4.29157e-14 3.34803e-13 22.0942 -26.8161 -4.18252 -10.9307 -4.72646 19.5588 -0.011316 3.03574 0.427049 2.28445e-09 7.4105e-10 3.25683e-09 3.95986e-09 1.28111e-09 5.62309e-09 2.28445e-09 7.4105e-10 3.25681e-09 7.73091 5.47488 0.417314 2.28444e-09 7.4105e-10 3.25682e-09 2.90554 0.965183 0.102902 2.28445e-09 7.4105e-10 3.25683e-09 10.2786 0.731801 0.0259123 2.28444e-09 7.41052e-10 3.25683e-09 2.22167 -0.733487 -0.20892 8.94904e-15 4.29588e-14 3.34654e-13 -41.7575 -20.3098 6.94013 11.1229 -4.85234 -19.925 0.00237169 1.39043 -0.195451 7.93915e-10 -1.0591e-09 3.09234e-09 1.37656e-09 -1.83522e-09 5.3464e-09 7.93909e-10 -1.0591e-09 3.09235e-09 -7.73091 5.47488 -0.417314 7.93915e-10 -1.0591e-09 3.09233e-09 -2.90554 0.965183 -0.102902 7.93909e-10 -1.0591e-09 3.09234e-09 -10.2786 0.731801 -0.0259123 7.93913e-10 -1.0591e-09 3.09234e-09 -2.22167 -0.733487 0.20892 -2.03217e-16 0.0 -3.88251e-19 -4.15982 -8.1979 -1.8319 -0.119696 25.2326 0.46349 -6.29589 -6.603 -27.7198 2.03217e-16 0.0 3.88251e-19 4.99796 -12.6663 -3.65035 0.103222 25.514 -0.402754 2.52476 -7.47207 10.8618
-0.624445 83.5083 -163.757 -1.4985 12.3922 2.7128 4.55382 3.25016 -5.48918 7.3964 0.201467 -1.57631 2.33056 -7.14017 1.59773 -17.883 10.1337 3.82656 -0.0 0.0 0.0 -0.0 0.0 0.0 -4.04667e-15 2.93095e-14 2.5848e-13 23.0979 -28.7994 -4.64921 -11.6325 -5.05015 21.0502 -0.0127 3.12213 0.439251 1.65792e-09 6.31728e-10 2.65417e-09 2.8749e-09 1.09234e-09 4.58326e-09 1.65793e-09 6.31729e-10 2.65416e-09 7.73091 5.47488 0.417314 1.65792e-09 6.31729e-10 2.65416e-09 2.90554 0.965183 0.102902 1.65793e-09 6.31729e-10 2.65417e-09 10.2786 0.731801 0.0259123 1.65792e-09 6.31731e-10 2.65418e-09 2.22167 -0.733487 -0.20892 -4.07259e-15 2.93564e-14 2.58365e-13 -43.9113 -21.8183 7.67025 11.8752 -5.21117 -21.5263 0.000227483 0.990221 -0.139167 4.63974e-10 -9.66768e-10 2.37461e-09 8.05814e-10 -1.67493e-09 4.10567e-09 4.63969e-10 -9.66763e-10 2.37462e-09 -7.73091 5.47488 -0.417314 4.63974e-10 -9.66764e-10 2.3746e-09 -2.90554 0.965183 -0.102902 4.63968e-10 -9.66763e-10 2.37461e-09 -10.2786 0.731801 -0.0259123 4.63974e-10 -9.66764e-10 2.37461e-09 -2.22167 -0.733487 0.20892 -2.03217e-16 0.0 -3.88251e-19 -4.52454 -8.58743 -1.9573 -0.147441 27.0513 0.508714 -7.04614 -7.13611 -29.6724 2.03217e-16 0.0 3.88251e-19 5.33139 -13.284 -3.88946 0.126048 27.2428 -0.439805 2.8173 -8.16214 11.6729
